<?xml version="1.0" encoding="UTF-8" standalone="no"?>
<!DOCTYPE svg PUBLIC "-//W3C//DTD SVG 1.1//EN"
 "http://www.w3.org/Graphics/SVG/1.1/DTD/svg11.dtd">
<!-- Generated by graphviz version 12.2.1 (20241206.2353)
 -->
<!-- Title: G Pages: 1 -->
<svg width="598pt" height="425pt"
 viewBox="0.00 0.00 597.65 425.00" xmlns="http://www.w3.org/2000/svg" xmlns:xlink="http://www.w3.org/1999/xlink">
<g id="graph0" class="graph" transform="scale(1 1) rotate(0) translate(4 421)">
<title>G</title>
<polygon fill="#f9f9f9" stroke="none" points="-4,4 -4,-421 593.65,-421 593.65,4 -4,4"/>
<g id="clust1" class="cluster">
<title>cluster_1</title>
<polygon fill="#5dade2" fill-opacity="0.125490" stroke="#5dade2" stroke-width="2" points="42.45,-8 42.45,-192 581.65,-192 581.65,-8 42.45,-8"/>
<text text-anchor="middle" x="312.05" y="-174.7" font-family="Arial" font-size="14.00">root</text>
</g>
<g id="clust2" class="cluster">
<title>cluster_legend</title>
<polygon fill="#f9f9f9" stroke="gray" stroke-width="2" stroke-dasharray="5,2" points="8,-200 8,-409 508.57,-409 508.57,-200 8,-200"/>
<text text-anchor="middle" x="258.29" y="-391.7" font-family="Arial" font-size="14.00">Legend</text>
</g>
<!-- n0 -->
<g id="node1" class="node">
<title>n0</title>
<polygon fill="#5dade2" stroke="black" stroke-width="1.5" points="116.9,-120.28 113.9,-124.28 92.9,-124.28 89.9,-120.28 50.45,-120.28 50.45,-75.72 116.9,-75.72 116.9,-120.28"/>
<text text-anchor="middle" x="83.67" y="-92.58" font-family="Arial" font-size="14.00">root</text>
</g>
<!-- n2 -->
<g id="node2" class="node">
<title>n2</title>
<ellipse fill="#eb984e" stroke="black" stroke-width="1.5" cx="407.87" cy="-48" rx="165.78" ry="31.5"/>
<text text-anchor="middle" x="407.87" y="-42.58" font-family="Arial" font-size="14.00">cargo (.): version_conflict v0.1.0</text>
</g>
<!-- n0&#45;&gt;n2 -->
<g id="edge2" class="edge">
<title>n0&#45;&gt;n2</title>
<path fill="none" stroke="blue" d="M117.19,-97.61C172.94,-97.61 278.65,-97.61 278.65,-97.61 278.65,-97.61 278.65,-77.41 278.65,-77.41"/>
<polygon fill="blue" stroke="blue" points="281.45,-77.41 278.65,-69.41 275.85,-77.41 281.45,-77.41"/>
<text text-anchor="middle" x="196.72" y="-70.5" font-family="Arial" font-size="10.00" fill="gray">Contain</text>
</g>
<!-- n1 -->
<g id="node3" class="node">
<title>n1</title>
<polygon fill="#fadbd8" stroke="black" points="456.85,-160.28 352.9,-160.28 352.9,-115.72 462.85,-115.72 462.85,-154.28 456.85,-160.28"/>
<polyline fill="none" stroke="black" points="456.85,-160.28 456.85,-154.28"/>
<polyline fill="none" stroke="black" points="462.85,-154.28 456.85,-154.28"/>
<text text-anchor="middle" x="407.87" y="-132.57" font-family="Arial" font-size="14.00">Cargo.toml</text>
</g>
<!-- n0&#45;&gt;n1 -->
<g id="edge1" class="edge">
<title>n0&#45;&gt;n1</title>
<path fill="none" stroke="blue" d="M83.65,-120.62C83.65,-130.67 83.65,-140.28 83.65,-140.28 83.65,-140.28 342.99,-140.28 342.99,-140.28"/>
<polygon fill="blue" stroke="blue" points="342.99,-143.08 350.99,-140.28 342.99,-137.48 342.99,-143.08"/>
<text text-anchor="middle" x="196.72" y="-131.5" font-family="Arial" font-size="10.00" fill="gray">Contain</text>
</g>
<!-- dir -->
<g id="node4" class="node">
<title>dir</title>
<polygon fill="#5dade2" stroke="black" points="132.27,-265.27 129.27,-269.27 108.27,-269.27 105.27,-265.27 35.07,-265.27 35.07,-220.72 132.27,-220.72 132.27,-265.27"/>
<text text-anchor="middle" x="83.67" y="-237.57" font-family="Arial" font-size="14.00">Directory</text>
</g>
<!-- file -->
<g id="node5" class="node">
<title>file</title>
<polygon fill="#fadbd8" stroke="black" points="434.35,-252.28 375.4,-252.28 375.4,-207.72 440.35,-207.72 440.35,-246.28 434.35,-252.28"/>
<polyline fill="none" stroke="black" points="434.35,-252.28 434.35,-246.28"/>
<polyline fill="none" stroke="black" points="440.35,-246.28 434.35,-246.28"/>
<text text-anchor="middle" x="407.87" y="-224.57" font-family="Arial" font-size="14.00">File</text>
</g>
<!-- dir&#45;&gt;file -->
<g id="edge3" class="edge">
<title>dir&#45;&gt;file</title>
<path fill="none" stroke="blue" d="M132.56,-236.5C132.56,-236.5 363.39,-236.5 363.39,-236.5"/>
<polygon fill="blue" stroke="blue" points="363.39,-240 373.39,-236.5 363.39,-233 363.39,-240"/>
<text text-anchor="middle" x="196.72" y="-246.5" font-family="Arial" font-size="10.00" fill="gray">Contain</text>
</g>
<!-- pkg -->
<g id="node6" class="node">
<title>pkg</title>
<ellipse fill="#eb984e" stroke="black" cx="83.67" cy="-333" rx="67.67" ry="31.5"/>
<text text-anchor="middle" x="83.67" y="-327.57" font-family="Arial" font-size="14.00">Package</text>
</g>
<!-- ext -->
<g id="node7" class="node">
<title>ext</title>
<polygon fill="#ec7063" stroke="black" points="462.01,-377.55 353.73,-377.55 315.17,-288.45 500.57,-288.45 462.01,-377.55"/>
<text text-anchor="middle" x="407.87" y="-327.57" font-family="Arial" font-size="14.00">External</text>
</g>
<!-- pkg&#45;&gt;ext -->
<g id="edge4" class="edge">
<title>pkg&#45;&gt;ext</title>
<path fill="none" stroke="red" stroke-dasharray="5,2" d="M151.63,-333C151.63,-333 322.56,-333 322.56,-333"/>
<polygon fill="red" stroke="red" points="322.56,-336.5 332.56,-333 322.56,-329.5 322.56,-336.5"/>
<text text-anchor="middle" x="196.72" y="-335.5" font-family="Arial" font-size="10.00" fill="gray">Dependency</text>
</g>
</g>
</svg>
